# xmcd
#
# Track frame offsets:
#	150
#	16449
#	30636
#	43857
#	65548
#	82564
#	98877
#	116069
#	133336
#	151486
#	168620
#	185305
#	195578
#	208139
#	219787
#	240667
#	252681
#	264911
#	280746
#	299921
#	315513
#	328427
#
# Disc length: 4577 seconds
#
# Revision: 1
# Processed by: cddbd v1.5PL3 Copyright (c) Steve Scherf et al.
# Submitted via: EasyCDDAExtractor 6.2.0.3
#
DISCID=4f11df16
DTITLE=Duduca and Dalvan - O Melhor de
DYEAR=2004
DGENRE=Sertanejo
TTITLE0=Mulher Maravilha
TTITLE1=Espinheira
TTITLE2=Dama De Vermelho
TTITLE3=Berrante De Ouro
TTITLE4=A Periquita
TTITLE5=Rastro Na Areia
TTITLE6=Massa Falida
TTITLE7=Te Amo, Te Amo, Te Amo
TTITLE8=Pirâmide Do Amor
TTITLE9=Utopia
TTITLE10=Meus Pedaços
TTITLE11=Moreninha Moreninha
TTITLE12=Vestido Branco
TTITLE13=Quem Sou Eu
TTITLE14=Amigo
TTITLE15=Pé De Cedro
TTITLE16=Amor De Caminhoneiro
TTITLE17=Eu Disse Não
TTITLE18=Igrejinha Da Serra
TTITLE19=Braços Abertos
TTITLE20=Um Milhagre De Amor
TTITLE21=Quem Quer Um Corpo
EXTD=
EXTT0=
EXTT1=
EXTT2=
EXTT3=
EXTT4=
EXTT5=
EXTT6=
EXTT7=
EXTT8=
EXTT9=
EXTT10=
EXTT11=
EXTT12=
EXTT13=
EXTT14=
EXTT15=
EXTT16=
EXTT17=
EXTT18=
EXTT19=
EXTT20=
EXTT21=
PLAYORDER=
